<mxfile host="app.diagrams.net" modified="2021-08-23T23:00:08.396Z" agent="5.0 (Windows NT 10.0; Win64; x64) AppleWebKit/537.36 (KHTML, like Gecko) Chrome/92.0.4515.159 Safari/537.36 Edg/92.0.902.78" etag="ueS8QuwSJwjjOh-kuh_M" version="14.9.8" type="github">
  <diagram id="C5RBs43oDa-KdzZeNtuy" name="Page-1">
    <mxGraphModel dx="1673" dy="896" grid="1" gridSize="10" guides="1" tooltips="1" connect="1" arrows="1" fold="1" page="1" pageScale="1" pageWidth="690" pageHeight="980" math="0" shadow="0">
      <root>
        <mxCell id="WIyWlLk6GJQsqaUBKTNV-0" />
        <mxCell id="WIyWlLk6GJQsqaUBKTNV-1" parent="WIyWlLk6GJQsqaUBKTNV-0" />
        <mxCell id="YXC68n04Wp4YI0rS6X4y-0" value="Nurse" style="swimlane;fontStyle=1;align=center;verticalAlign=top;childLayout=stackLayout;horizontal=1;startSize=26;horizontalStack=0;resizeParent=1;resizeParentMax=0;resizeLast=0;collapsible=1;marginBottom=0;" vertex="1" parent="WIyWlLk6GJQsqaUBKTNV-1">
          <mxGeometry x="120" y="240" width="160" height="86" as="geometry" />
        </mxCell>
        <mxCell id="YXC68n04Wp4YI0rS6X4y-1" value="- speciality: String" style="text;strokeColor=none;fillColor=none;align=left;verticalAlign=top;spacingLeft=4;spacingRight=4;overflow=hidden;rotatable=0;points=[[0,0.5],[1,0.5]];portConstraint=eastwest;" vertex="1" parent="YXC68n04Wp4YI0rS6X4y-0">
          <mxGeometry y="26" width="160" height="26" as="geometry" />
        </mxCell>
        <mxCell id="YXC68n04Wp4YI0rS6X4y-2" value="" style="line;strokeWidth=1;fillColor=none;align=left;verticalAlign=middle;spacingTop=-1;spacingLeft=3;spacingRight=3;rotatable=0;labelPosition=right;points=[];portConstraint=eastwest;" vertex="1" parent="YXC68n04Wp4YI0rS6X4y-0">
          <mxGeometry y="52" width="160" height="8" as="geometry" />
        </mxCell>
        <mxCell id="YXC68n04Wp4YI0rS6X4y-3" value="+ showSpeciality(): void" style="text;strokeColor=none;fillColor=none;align=left;verticalAlign=top;spacingLeft=4;spacingRight=4;overflow=hidden;rotatable=0;points=[[0,0.5],[1,0.5]];portConstraint=eastwest;" vertex="1" parent="YXC68n04Wp4YI0rS6X4y-0">
          <mxGeometry y="60" width="160" height="26" as="geometry" />
        </mxCell>
        <mxCell id="YXC68n04Wp4YI0rS6X4y-4" value="User" style="swimlane;fontStyle=3;align=center;verticalAlign=top;childLayout=stackLayout;horizontal=1;startSize=26;horizontalStack=0;resizeParent=1;resizeParentMax=0;resizeLast=0;collapsible=1;marginBottom=0;whiteSpace=wrap;" vertex="1" parent="WIyWlLk6GJQsqaUBKTNV-1">
          <mxGeometry x="320" y="10" width="160" height="140" as="geometry" />
        </mxCell>
        <mxCell id="YXC68n04Wp4YI0rS6X4y-5" value="- id: int&#xa;- name: String&#xa;- email: String&#xa;- address: String&#xa;- phonenumber: String" style="text;strokeColor=none;fillColor=none;align=left;verticalAlign=top;spacingLeft=4;spacingRight=4;overflow=hidden;rotatable=0;points=[[0,0.5],[1,0.5]];portConstraint=eastwest;" vertex="1" parent="YXC68n04Wp4YI0rS6X4y-4">
          <mxGeometry y="26" width="160" height="78" as="geometry" />
        </mxCell>
        <mxCell id="YXC68n04Wp4YI0rS6X4y-6" value="" style="line;strokeWidth=1;fillColor=none;align=left;verticalAlign=middle;spacingTop=-1;spacingLeft=3;spacingRight=3;rotatable=0;labelPosition=right;points=[];portConstraint=eastwest;" vertex="1" parent="YXC68n04Wp4YI0rS6X4y-4">
          <mxGeometry y="104" width="160" height="8" as="geometry" />
        </mxCell>
        <mxCell id="YXC68n04Wp4YI0rS6X4y-7" value="+ showDataUser(): void" style="text;strokeColor=none;fillColor=none;align=left;verticalAlign=top;spacingLeft=4;spacingRight=4;overflow=hidden;rotatable=0;points=[[0,0.5],[1,0.5]];portConstraint=eastwest;fontStyle=2" vertex="1" parent="YXC68n04Wp4YI0rS6X4y-4">
          <mxGeometry y="112" width="160" height="28" as="geometry" />
        </mxCell>
        <mxCell id="YXC68n04Wp4YI0rS6X4y-12" value="Patient" style="swimlane;fontStyle=1;align=center;verticalAlign=top;childLayout=stackLayout;horizontal=1;startSize=26;horizontalStack=0;resizeParent=1;resizeParentMax=0;resizeLast=0;collapsible=1;marginBottom=0;" vertex="1" parent="WIyWlLk6GJQsqaUBKTNV-1">
          <mxGeometry x="320" y="240" width="160" height="182" as="geometry" />
        </mxCell>
        <mxCell id="YXC68n04Wp4YI0rS6X4y-13" value="- birthday: String&#xa;- weight: Double&#xa;- height: Double&#xa;- blood: String" style="text;strokeColor=none;fillColor=none;align=left;verticalAlign=top;spacingLeft=4;spacingRight=4;overflow=hidden;rotatable=0;points=[[0,0.5],[1,0.5]];portConstraint=eastwest;" vertex="1" parent="YXC68n04Wp4YI0rS6X4y-12">
          <mxGeometry y="26" width="160" height="94" as="geometry" />
        </mxCell>
        <mxCell id="YXC68n04Wp4YI0rS6X4y-14" value="" style="line;strokeWidth=1;fillColor=none;align=left;verticalAlign=middle;spacingTop=-1;spacingLeft=3;spacingRight=3;rotatable=0;labelPosition=right;points=[];portConstraint=eastwest;" vertex="1" parent="YXC68n04Wp4YI0rS6X4y-12">
          <mxGeometry y="120" width="160" height="8" as="geometry" />
        </mxCell>
        <mxCell id="YXC68n04Wp4YI0rS6X4y-15" value="+ method(type): type" style="text;strokeColor=none;fillColor=none;align=left;verticalAlign=top;spacingLeft=4;spacingRight=4;overflow=hidden;rotatable=0;points=[[0,0.5],[1,0.5]];portConstraint=eastwest;" vertex="1" parent="YXC68n04Wp4YI0rS6X4y-12">
          <mxGeometry y="128" width="160" height="54" as="geometry" />
        </mxCell>
        <mxCell id="YXC68n04Wp4YI0rS6X4y-16" value="Doctor&#xa;" style="swimlane;fontStyle=1;align=center;verticalAlign=top;childLayout=stackLayout;horizontal=1;startSize=26;horizontalStack=0;resizeParent=1;resizeParentMax=0;resizeLast=0;collapsible=1;marginBottom=0;" vertex="1" parent="WIyWlLk6GJQsqaUBKTNV-1">
          <mxGeometry x="520" y="240" width="300" height="140" as="geometry" />
        </mxCell>
        <mxCell id="YXC68n04Wp4YI0rS6X4y-17" value="- speciality: String&#xa;- AvailableAppointments: List&lt;Appointments&gt;&#xa;" style="text;strokeColor=none;fillColor=none;align=left;verticalAlign=top;spacingLeft=4;spacingRight=4;overflow=hidden;rotatable=0;points=[[0,0.5],[1,0.5]];portConstraint=eastwest;" vertex="1" parent="YXC68n04Wp4YI0rS6X4y-16">
          <mxGeometry y="26" width="300" height="44" as="geometry" />
        </mxCell>
        <mxCell id="YXC68n04Wp4YI0rS6X4y-18" value="" style="line;strokeWidth=1;fillColor=none;align=left;verticalAlign=middle;spacingTop=-1;spacingLeft=3;spacingRight=3;rotatable=0;labelPosition=right;points=[];portConstraint=eastwest;" vertex="1" parent="YXC68n04Wp4YI0rS6X4y-16">
          <mxGeometry y="70" width="300" height="8" as="geometry" />
        </mxCell>
        <mxCell id="YXC68n04Wp4YI0rS6X4y-19" value="+ showSpeciality(): void&#xa;+ addAvailableAppoinment(Date date, String time): void&#xa;+ showAvailableAppointments(): void&#xa;+ getAvailableAppointments(): List&lt;AvailableAppointment&gt;&#xa;" style="text;strokeColor=none;fillColor=none;align=left;verticalAlign=top;spacingLeft=4;spacingRight=4;overflow=hidden;rotatable=0;points=[[0,0.5],[1,0.5]];portConstraint=eastwest;" vertex="1" parent="YXC68n04Wp4YI0rS6X4y-16">
          <mxGeometry y="78" width="300" height="62" as="geometry" />
        </mxCell>
        <mxCell id="YXC68n04Wp4YI0rS6X4y-32" value="Extends" style="endArrow=block;endSize=16;endFill=0;html=1;exitX=0.513;exitY=1;exitDx=0;exitDy=0;exitPerimeter=0;entryX=0.5;entryY=0;entryDx=0;entryDy=0;" edge="1" parent="WIyWlLk6GJQsqaUBKTNV-1" source="YXC68n04Wp4YI0rS6X4y-7" target="YXC68n04Wp4YI0rS6X4y-0">
          <mxGeometry width="160" relative="1" as="geometry">
            <mxPoint x="350" y="210" as="sourcePoint" />
            <mxPoint x="510" y="210" as="targetPoint" />
          </mxGeometry>
        </mxCell>
        <mxCell id="YXC68n04Wp4YI0rS6X4y-33" value="Extends" style="endArrow=block;endSize=16;endFill=0;html=1;exitX=0.519;exitY=1.036;exitDx=0;exitDy=0;exitPerimeter=0;" edge="1" parent="WIyWlLk6GJQsqaUBKTNV-1" source="YXC68n04Wp4YI0rS6X4y-7" target="YXC68n04Wp4YI0rS6X4y-12">
          <mxGeometry width="160" relative="1" as="geometry">
            <mxPoint x="412.0799999999999" y="160" as="sourcePoint" />
            <mxPoint x="210" y="250" as="targetPoint" />
          </mxGeometry>
        </mxCell>
        <mxCell id="YXC68n04Wp4YI0rS6X4y-34" value="Extends" style="endArrow=block;endSize=16;endFill=0;html=1;exitX=0.513;exitY=1;exitDx=0;exitDy=0;exitPerimeter=0;entryX=0.5;entryY=0;entryDx=0;entryDy=0;" edge="1" parent="WIyWlLk6GJQsqaUBKTNV-1" source="YXC68n04Wp4YI0rS6X4y-7" target="YXC68n04Wp4YI0rS6X4y-16">
          <mxGeometry width="160" relative="1" as="geometry">
            <mxPoint x="413.03999999999996" y="161.00800000000004" as="sourcePoint" />
            <mxPoint x="410.9903630523063" y="250" as="targetPoint" />
          </mxGeometry>
        </mxCell>
        <mxCell id="YXC68n04Wp4YI0rS6X4y-36" value="" style="endArrow=open;startArrow=circlePlus;endFill=0;startFill=0;endSize=8;html=1;exitX=0.53;exitY=1.045;exitDx=0;exitDy=0;exitPerimeter=0;entryX=0.5;entryY=0;entryDx=0;entryDy=0;" edge="1" parent="WIyWlLk6GJQsqaUBKTNV-1" source="YXC68n04Wp4YI0rS6X4y-19" target="YXC68n04Wp4YI0rS6X4y-37">
          <mxGeometry width="160" relative="1" as="geometry">
            <mxPoint x="620" y="410" as="sourcePoint" />
            <mxPoint x="780" y="410" as="targetPoint" />
          </mxGeometry>
        </mxCell>
        <mxCell id="YXC68n04Wp4YI0rS6X4y-37" value="AvailableAppointment" style="swimlane;fontStyle=1;align=center;verticalAlign=top;childLayout=stackLayout;horizontal=1;startSize=26;horizontalStack=0;resizeParent=1;resizeParentMax=0;resizeLast=0;collapsible=1;marginBottom=0;" vertex="1" parent="WIyWlLk6GJQsqaUBKTNV-1">
          <mxGeometry x="600" y="430" width="160" height="68" as="geometry" />
        </mxCell>
        <mxCell id="YXC68n04Wp4YI0rS6X4y-38" value="~ id: int&#xa;~ date: Date&#xa;~ time: String" style="text;strokeColor=none;fillColor=none;align=left;verticalAlign=top;spacingLeft=4;spacingRight=4;overflow=hidden;rotatable=0;points=[[0,0.5],[1,0.5]];portConstraint=eastwest;" vertex="1" parent="YXC68n04Wp4YI0rS6X4y-37">
          <mxGeometry y="26" width="160" height="26" as="geometry" />
        </mxCell>
        <mxCell id="YXC68n04Wp4YI0rS6X4y-39" value="" style="line;strokeWidth=1;fillColor=none;align=left;verticalAlign=middle;spacingTop=-1;spacingLeft=3;spacingRight=3;rotatable=0;labelPosition=right;points=[];portConstraint=eastwest;" vertex="1" parent="YXC68n04Wp4YI0rS6X4y-37">
          <mxGeometry y="52" width="160" height="16" as="geometry" />
        </mxCell>
      </root>
    </mxGraphModel>
  </diagram>
</mxfile>
